<?xml version="1.0" encoding="UTF-8" standalone="no"?>
<!-- Created with Inkscape (http://www.inkscape.org/) -->

<svg
   xmlns:dc="http://purl.org/dc/elements/1.1/"
   xmlns:cc="http://creativecommons.org/ns#"
   xmlns:rdf="http://www.w3.org/1999/02/22-rdf-syntax-ns#"
   xmlns:svg="http://www.w3.org/2000/svg"
   xmlns="http://www.w3.org/2000/svg"
   xmlns:sodipodi="http://sodipodi.sourceforge.net/DTD/sodipodi-0.dtd"
   xmlns:inkscape="http://www.inkscape.org/namespaces/inkscape"
   width="744.09448819"
   height="1052.3622047"
   id="svg2"
   version="1.1"
   inkscape:version="0.48.0 r9654"
   sodipodi:docname="New document 1">
  <defs
     id="defs4" />
  <sodipodi:namedview
     id="base"
     pagecolor="#ffffff"
     bordercolor="#666666"
     borderopacity="1.0"
     inkscape:pageopacity="0.0"
     inkscape:pageshadow="2"
     inkscape:zoom="0.35"
     inkscape:cx="-95"
     inkscape:cy="520"
     inkscape:document-units="px"
     inkscape:current-layer="layer2"
     showgrid="false"
     inkscape:window-width="1056"
     inkscape:window-height="620"
     inkscape:window-x="220"
     inkscape:window-y="220"
     inkscape:window-maximized="0" />
  <metadata
     id="metadata7">
    <rdf:RDF>
      <cc:Work
         rdf:about="">
        <dc:format>image/svg+xml</dc:format>
        <dc:type
           rdf:resource="http://purl.org/dc/dcmitype/StillImage" />
        <dc:title></dc:title>
      </cc:Work>
    </rdf:RDF>
  </metadata>
  <g
     inkscape:groupmode="layer"
     id="layer2"
     inkscape:label="Layer">
    <g
       id="g3007">
      <path
         inkscape:connector-curvature="0"
         id="path3003"
         d="m 128.57143,258.07647 17.14286,-117.14286 31.42857,88.57143 54.28571,-40 40,-168.571429 40,159.999999 157.14286,-37.14286 37.14286,-77.142853 57.14285,122.857143 88.57143,5.71429 65.71429,-42.85715 -31.42857,105.71429 14.28571,120 28.57143,51.42857 -34.28572,37.14286 8.57143,131.42857 14.28572,131.42857 -60,-65.71429 -80,48.57143 -45.71429,171.42857 -42.85714,-200 -91.42857,17.14286 -31.42857,65.71429 -11.42858,-48.57143 -117.14285,22.85714 -8.57143,128.57143 -54.28572,-114.28571 -85.714281,-14.28572 -82.8571433,-65.71428 85.7142853,-60 L 60,463.79075 20,335.21933 88.571429,323.79075 z"
         style="fill:#ff0000;stroke:#000000;stroke-width:1px;stroke-linecap:butt;stroke-linejoin:miter;stroke-opacity:1" />
    </g>
  </g>
  <g
     inkscape:label="Layer 1"
     inkscape:groupmode="layer"
     id="layer1"
     sodipodi:insensitive="true">
    <path
       style="fill:#ffff00;stroke:#000000;stroke-width:1.29987907px;stroke-linecap:butt;stroke-linejoin:miter;stroke-opacity:1"
       d="M 94.894765,189.78217 175.26961,363.79753 187.63497,51.462266 261.82715,279.02081 379.29809,64.848062 363.84139,243.32536 422.57685,38.076468 524.59109,274.55888 l 77.28352,-151.7057 132.92763,209.71083 -58.73546,75.85285 55.64413,187.40116 -71.10084,8.92386 L 648.24471,890.30555 530.77377,595.81802 400.93747,863.53396 394.7548,595.81802 289.64922,930.46294 209.27436,613.66575 119.62549,917.07714 48.524657,796.60497 135.0822,693.98053 11.428571,475.34584 91.803424,461.96004 z"
       id="path2985"
       inkscape:connector-curvature="0" />
    <text
       xml:space="preserve"
       style="font-size:276.35235596px;font-style:normal;font-variant:normal;font-weight:normal;font-stretch:normal;line-height:125%;letter-spacing:0px;word-spacing:0px;fill:#000000;fill-opacity:1;stroke:none;font-family:Rockwell Extra Bold;-inkscape-font-specification:Rockwell Extra Bold"
       x="255.81657"
       y="418.20453"
       id="text2987"
       sodipodi:linespacing="125%"
       transform="matrix(0.66394541,0.07122541,-0.13875174,1.4912632,0,0)"
       inkscape:transform-center-y="56.805595"
       inkscape:transform-center-x="1.1130468"><tspan
         sodipodi:role="line"
         id="tspan2989"
         x="255.81657"
         y="418.20453">Z</tspan></text>
    <text
       xml:space="preserve"
       style="font-size:272.62255859px;font-style:normal;font-variant:normal;font-weight:normal;font-stretch:normal;line-height:125%;letter-spacing:0px;word-spacing:0px;fill:#000000;fill-opacity:1;stroke:none;font-family:Rockwell Extra Bold;-inkscape-font-specification:Rockwell Extra Bold"
       x="802.6264"
       y="237.05206"
       id="text2991"
       sodipodi:linespacing="125%"
       transform="scale(0.36665344,2.7273711)"><tspan
         sodipodi:role="line"
         id="tspan2993"
         x="802.6264"
         y="237.05206">o</tspan></text>
    <text
       xml:space="preserve"
       style="font-size:353.99710083px;font-style:normal;font-variant:normal;font-weight:normal;font-stretch:normal;line-height:125%;letter-spacing:0px;word-spacing:0px;fill:#000000;fill-opacity:1;stroke:none;font-family:Rockwell Extra Bold;-inkscape-font-specification:Rockwell Extra Bold"
       x="704.20776"
       y="383.93353"
       id="text2995"
       sodipodi:linespacing="125%"
       transform="matrix(0.4969216,-0.10804235,0.22650138,1.9631432,0,0)"><tspan
         sodipodi:role="line"
         id="tspan2997"
         x="704.20776"
         y="383.93353">t</tspan></text>
    <text
       xml:space="preserve"
       style="font-size:416.30352783px;font-style:normal;font-variant:normal;font-weight:normal;font-stretch:normal;line-height:125%;letter-spacing:0px;word-spacing:0px;fill:#000000;fill-opacity:1;stroke:none;font-family:Rockwell Extra Bold;-inkscape-font-specification:Rockwell Extra Bold"
       x="918.87207"
       y="398.18002"
       id="text2999"
       sodipodi:linespacing="125%"
       transform="scale(0.58339606,1.7141014)"><tspan
         sodipodi:role="line"
         id="tspan3001"
         x="918.87207"
         y="398.18002">!</tspan></text>
  </g>
</svg>
